<svg width="19" height="18" viewBox="0 0 19 18" fill="none" xmlns="http://www.w3.org/2000/svg">
<path fill-rule="evenodd" clip-rule="evenodd" d="M0.443359 6C0.443359 3.79086 2.23422 2 4.44336 2H14.4434C16.6525 2 18.4434 3.79086 18.4434 6V14C18.4434 16.2091 16.6525 18 14.4434 18H4.44336C2.23422 18 0.443359 16.2091 0.443359 14V6ZM4.44336 4C3.33879 4 2.44336 4.89543 2.44336 6V14C2.44336 15.1046 3.33879 16 4.44336 16H14.4434C15.5479 16 16.4434 15.1046 16.4434 14V6C16.4434 4.89543 15.5479 4 14.4434 4H4.44336Z" fill="#3914AF"/>
<path fill-rule="evenodd" clip-rule="evenodd" d="M5.44336 0C5.99564 0 6.44336 0.447715 6.44336 1V3C6.44336 3.55228 5.99564 4 5.44336 4C4.89107 4 4.44336 3.55228 4.44336 3V1C4.44336 0.447715 4.89107 0 5.44336 0Z" fill="#3914AF"/>
<path fill-rule="evenodd" clip-rule="evenodd" d="M13.4434 0C13.9956 0 14.4434 0.447715 14.4434 1V3C14.4434 3.55228 13.9956 4 13.4434 4C12.8911 4 12.4434 3.55228 12.4434 3V1C12.4434 0.447715 12.8911 0 13.4434 0Z" fill="#3914AF"/>
<path d="M6.44336 7C6.44336 7.55228 5.99564 8 5.44336 8C4.89107 8 4.44336 7.55228 4.44336 7C4.44336 6.44772 4.89107 6 5.44336 6C5.99564 6 6.44336 6.44772 6.44336 7Z" fill="#3914AF"/>
<path d="M10.4434 7C10.4434 7.55228 9.99564 8 9.44336 8C8.89107 8 8.44336 7.55228 8.44336 7C8.44336 6.44772 8.89107 6 9.44336 6C9.99564 6 10.4434 6.44772 10.4434 7Z" fill="#3914AF"/>
<path d="M14.4434 7C14.4434 7.55228 13.9956 8 13.4434 8C12.8911 8 12.4434 7.55228 12.4434 7C12.4434 6.44772 12.8911 6 13.4434 6C13.9956 6 14.4434 6.44772 14.4434 7Z" fill="#3914AF"/>
<path d="M6.44336 11C6.44336 11.5523 5.99564 12 5.44336 12C4.89107 12 4.44336 11.5523 4.44336 11C4.44336 10.4477 4.89107 10 5.44336 10C5.99564 10 6.44336 10.4477 6.44336 11Z" fill="#3914AF"/>
</svg>
