<svg width="143" height="144" viewBox="0 0 143 144" fill="none" xmlns="http://www.w3.org/2000/svg">
<path d="M3.40009 141.994C8.01654 126.831 11.7345 111.407 15.7987 96.0922C19.4091 82.4789 22.865 68.4421 28.6794 55.5638C30.212 52.1681 32.3061 47.7005 35.1326 45.5803C35.6591 45.1871 36.2838 44.8805 36.5365 44.7963C37.3274 44.5365 38.1089 44.6091 39.3466 44.8524C42.1684 45.4094 43.6472 47.6537 45.6009 49.5072C48.8884 52.6267 54.1951 53.7641 57.5129 50.2608C60.4892 47.1201 62.3002 42.8071 64.062 38.9246C68.6691 28.7656 72.1672 17.6541 78.6016 8.44286C79.6288 6.97085 80.9368 5.39352 82.3336 4.42232C83.5925 3.54706 84.6267 3.29666 85.7849 3.53302C90.3218 4.45274 94.3743 8.57626 97.5822 11.6279C105.416 19.0863 112.218 27.6867 118.669 36.341C125.983 46.1513 132.808 56.3407 139.128 66.818C140.277 68.7183 143.288 67.0263 142.132 65.112C132.864 49.7436 122.562 34.8643 111.027 21.1036C106.464 15.6649 101.66 10.3151 96.1994 5.76328C93.1108 3.19135 88.9834 -0.164569 84.6945 0.00626928C80.7028 0.165406 77.771 3.66876 75.6418 6.66427C72.5135 11.0686 70.2508 16.1025 68.0655 21.0217C65.6882 26.3715 63.5122 31.8102 61.1045 37.1483C59.4409 40.8342 57.6322 45.2175 54.8596 48.0469C54.3261 48.5898 54.3308 48.6132 53.6382 48.9502C54.1295 48.7092 52.9199 49.0649 53.561 48.9923C52.7584 49.0813 51.8903 48.9268 51.1112 48.749C48.4274 48.1381 46.9908 45.7722 45.0745 44.038C41.5788 40.867 36.3704 40.1485 32.6594 43.1698C29.4188 45.8073 27.4136 50.0735 25.7219 53.7852C23.0685 59.5983 21.0212 65.6783 19.1119 71.7676C11.9451 94.6248 7.06189 118.123 0.0845744 141.034C-0.568233 143.171 2.75196 144.121 3.40009 141.994Z" fill="#351BA9"/>
</svg>
