<svg width="130" height="128" viewBox="0 0 130 128" fill="none" xmlns="http://www.w3.org/2000/svg">
<path d="M4.13204 126.106C8.79061 111.201 12.5156 96.0221 16.8372 81.0211C18.8799 73.9348 21.0255 66.8626 23.5806 59.9424C25.4197 54.9647 27.4342 49.849 30.5392 45.5055C31.4681 44.2019 32.4999 43.0973 33.7938 42.4468C34.0606 42.3134 34.5917 42.194 34.9591 42.1987C36.756 42.2151 38.3799 42.7416 39.8657 43.7339C42.3365 45.3838 44.0048 47.1436 47.112 47.5485C49.3653 47.841 51.3939 47.3472 53.102 45.8986C56.366 43.1278 58.3876 38.5924 60.3226 34.8784C63.1023 29.5356 65.6831 24.0898 68.6243 18.8313C71.184 14.2561 74.0082 9.47032 78.0818 6.06994C81.1236 3.52843 83.8705 3.46758 86.9661 5.42169C91.4374 8.24637 95.008 12.6811 98.3048 16.7391C102.704 22.1498 106.7 27.881 110.605 33.6498C115.896 41.4662 120.802 49.5541 126.24 57.2699C127.51 59.0719 130.531 57.3869 129.244 55.5638C122.159 45.5125 115.851 34.9322 108.733 24.8949C104.901 19.4913 100.914 14.1508 96.4283 9.26905C93.3912 5.96462 89.8043 2.28107 85.4218 0.858204C81.3388 -0.468717 77.3143 1.94876 74.4574 4.68217C70.461 8.50379 67.5901 13.5283 64.9531 18.3305C62.0775 23.5703 59.5364 28.981 56.7474 34.2652C55.6196 36.3996 54.4474 38.5222 53.1043 40.5301C52.283 41.7564 51.1038 43.2331 50.1421 43.8111C49.6648 44.1013 50.0602 43.9047 49.6835 44.0077C49.0096 44.1926 48.2445 44.1505 47.5519 44.1271C46.2042 44.0802 45.0109 43.4226 43.979 42.6035C41.3304 40.502 38.9952 39.0604 35.5276 38.7702C31.6833 38.4473 28.9434 41.6558 27.0037 44.546C23.9105 49.1586 21.8819 54.5435 19.9819 59.7295C17.4269 66.7081 15.3 73.8412 13.2479 80.9789C9.03161 95.678 5.37448 110.543 0.814189 125.144C0.145003 127.276 3.46988 128.226 4.13204 126.106Z" fill="#73CA30"/>
</svg>
