<svg width="103" height="99" viewBox="0 0 103 99" fill="none" xmlns="http://www.w3.org/2000/svg">
<path d="M4.35089 97.1691C8.38473 83.357 11.3586 69.257 15.3574 55.4308C17.0374 49.6223 18.7828 43.6874 21.476 38.251C22.2902 36.6105 23.1887 34.9677 24.4873 33.7624C24.8336 33.4418 25.0957 33.2944 25.4958 33.2031C25.9169 33.1072 25.1191 33.2172 25.5472 33.2101C25.9076 33.2055 26.2749 33.2382 26.6282 33.3014C27.4004 33.4395 28.0742 33.7461 28.7317 34.1579C32.9644 36.8118 33.2429 44.1087 39.1509 44.3825C42.3775 44.5323 44.6237 39.5101 45.8545 37.2424C48.5523 32.2647 50.8406 27.0717 53.3395 21.9933C55.7519 17.0882 58.2274 11.9583 61.6669 7.67101C62.5982 6.51025 63.6721 5.33544 64.8935 4.5655C65.9909 3.87513 66.5805 3.80024 67.6802 4.15128C69.2643 4.65677 70.7501 5.90178 72.0159 6.98766C73.9907 8.682 75.783 10.5823 77.5262 12.5083C85.5985 21.441 92.3769 31.4713 99.4736 41.1693C100.772 42.9432 103.795 41.2629 102.478 39.4633C94.1926 28.1388 86.3753 16.0023 76.2556 6.19432C73.4526 3.47963 69.2526 -0.531558 64.9473 0.760259C60.8269 1.99591 58.0168 6.55237 55.8969 9.97381C52.7639 15.0241 50.2393 20.4464 47.6772 25.8009C45.5339 30.2801 43.524 34.9606 40.7373 39.0865C40.2974 39.7371 40.0962 40.0156 39.5393 40.5679C39.1416 40.9657 39.4808 40.6825 39.1696 40.8815C38.8842 41.064 39.2141 40.9283 39.1907 40.9283C37.1785 40.9821 35.9033 37.9047 35.0656 36.5075C33.6407 34.1205 31.9536 31.7451 29.3401 30.575C27.3817 29.6974 24.96 29.3183 23.0624 30.5282C19.8615 32.5689 18.219 36.8843 16.8314 40.2168C14.515 45.7843 12.8257 51.6185 11.1995 57.4177C7.58919 70.2914 4.77908 83.378 1.0307 96.212C0.405969 98.3533 3.72616 99.3058 4.35089 97.1691Z" fill="#C81818"/>
</svg>
