<svg width="116" height="112" viewBox="0 0 116 112" fill="none" xmlns="http://www.w3.org/2000/svg">
<path d="M3.81991 110.216C7.64083 96.6238 10.9049 82.8772 14.9668 69.3482C16.9486 62.758 19.0895 56.1936 21.7546 49.8445C23.5492 45.5736 25.6387 40.8533 29.022 37.5816C30.0258 36.6104 31.2612 35.9552 32.1784 35.9294C34.3708 35.8639 37.3541 38.7026 39.4038 40.1325C42.0501 41.9813 45.5715 43.1234 48.4518 41.0405C49.9961 39.9242 51.0677 38.265 52.0247 36.6479C54.9121 31.7661 57.0038 26.407 59.3928 21.2771C61.7724 16.1684 64.2339 10.6711 68.0361 6.44231C69.2785 5.05922 70.7292 3.81655 72.5776 3.51232C74.15 3.25255 76.319 4.24716 77.7884 5.05688C82.9266 7.89326 87.0564 12.6135 90.7931 17.039C98.6268 26.3204 104.972 36.669 111.697 46.7461C111.915 47.0714 112.132 47.3943 112.357 47.7173C113.606 49.538 116.625 47.853 115.361 46.0136C108.73 36.3577 102.682 26.3648 95.3627 17.1864C91.4459 12.2719 87.1968 7.47436 82.1124 3.74166C78.5769 1.14633 73.9956 -1.04414 69.6716 0.825714C65.2119 2.75174 62.3129 8.09687 60.1041 12.1268C57.1372 17.5444 54.76 23.264 52.1441 28.8525C51.0818 31.1226 49.9821 33.3926 48.6671 35.5316C47.6797 37.1417 46.7531 38.6441 44.8696 38.7354C43.2528 38.815 41.6711 37.5325 40.438 36.6455C38.8188 35.4801 37.2839 34.2094 35.4846 33.3224C33.8093 32.4963 31.9796 32.2131 30.1849 32.8309C26.3429 34.1532 23.844 38.1503 21.9605 41.5039C18.9585 46.8467 16.8106 52.695 14.8241 58.4754C10.0696 72.2969 6.57621 86.5279 2.84187 100.642C2.08143 103.52 1.31164 106.394 0.504401 109.259C-0.101611 111.402 3.21858 112.357 3.81991 110.216Z" fill="#F2D131"/>
</svg>
