<svg width="129" height="19" viewBox="0 0 129 19" fill="none" xmlns="http://www.w3.org/2000/svg">
<path d="M1.54388 6.66064C2.48449 5.57477 3.79478 5.02948 5.47243 5.02948C7.14773 5.02948 8.45803 5.57477 9.40331 6.66064C10.3463 7.74652 10.8166 9.11322 10.8166 10.7584C10.8166 12.4036 10.3463 13.7703 9.40331 14.8585C8.45803 15.9444 7.15007 16.4827 5.47243 16.4827C3.79712 16.4827 2.48683 15.9421 1.54388 14.8585C0.600939 13.7703 0.128296 12.4036 0.128296 10.7584C0.128296 9.11322 0.600939 7.74652 1.54388 6.66064ZM2.50555 14.0816C3.22387 14.9053 4.21361 15.3172 5.47009 15.3172C6.72657 15.3172 7.71631 14.9053 8.43463 14.0816C9.15295 13.2578 9.51328 12.1509 9.51328 10.7584C9.51328 9.36597 9.15061 8.25903 8.43463 7.43526C7.71631 6.6115 6.72657 6.1996 5.47009 6.1996C4.21361 6.1996 3.22387 6.6115 2.50555 7.43526C1.78722 8.25903 1.42923 9.36597 1.42923 10.7584C1.43157 12.1509 1.78956 13.2578 2.50555 14.0816Z" fill="#351BA9"/>
<path d="M20.0308 2.38266C19.3054 2.64945 18.7111 2.88348 18.2455 3.08006L17.9086 3.21346C17.34 3.43812 16.8884 3.63938 16.5515 3.82192C16.2146 3.99978 15.8074 4.28763 15.3278 4.68547C14.8504 5.08331 14.4784 5.60753 14.2164 6.25578C13.9566 6.90871 13.8022 7.68099 13.7577 8.57965C14.2047 7.59206 14.8317 6.86892 15.6319 6.41257C16.4298 5.95623 17.3049 5.72688 18.2478 5.72688C19.8179 5.72688 21.0205 6.23705 21.8512 7.25271C22.6818 8.27306 23.0959 9.55085 23.0959 11.0954C23.0959 12.6517 22.621 13.9388 21.671 14.9545C20.7187 15.9748 19.4645 16.485 17.9086 16.485C14.4082 16.485 12.6557 14.2828 12.6557 9.88317C12.6557 8.29414 12.8312 7.007 13.1845 6.01941C13.5355 5.03183 14.0923 4.21741 14.8575 3.58321C15.6226 2.94666 16.6989 2.36862 18.0911 1.84206C18.18 1.81164 18.6058 1.65251 19.371 1.37168C20.1337 1.08617 20.6883 0.870862 21.0322 0.718745C21.5868 0.463658 21.9377 0.494083 22.0875 0.807676C22.2676 1.17041 22.1015 1.484 21.5961 1.75313C21.2779 1.90291 20.7561 2.11353 20.0308 2.38266ZM15.1242 14.2056C15.7981 14.9475 16.7246 15.3149 17.9086 15.3149C19.1206 15.3149 20.0729 14.9287 20.7608 14.1588C21.451 13.3888 21.795 12.3732 21.795 11.1165C21.795 9.84571 21.4604 8.82069 20.7936 8.05075C20.1291 7.28081 19.1814 6.89466 17.9554 6.89466C16.8182 6.89466 15.8917 7.29485 15.1827 8.09521C14.4714 8.89792 14.1157 9.94167 14.1157 11.2288C14.1134 12.4715 14.4527 13.4661 15.1242 14.2056Z" fill="#351BA9"/>
<path d="M24.4881 6.42425C24.0856 6.42425 23.8821 6.23235 23.8821 5.83919C23.8821 5.67537 23.9382 5.53729 24.0505 5.42496C24.1629 5.31263 24.3103 5.25647 24.4881 5.25647H27.586C28.0072 5.25647 28.2154 5.49752 28.2154 5.97727V9.18808C28.9337 9.06873 29.6076 9.00788 30.2347 9.00788C33.2296 9.00788 34.7248 10.2201 34.7248 12.6446C34.7248 13.0518 34.6616 13.438 34.5329 13.8124C34.4066 14.1892 34.1866 14.58 33.8707 14.9919C33.5572 15.4038 33.0658 15.7361 32.4013 15.9912C31.7345 16.2463 30.9296 16.3726 29.9866 16.3726C28.908 16.3726 28.1101 16.3048 27.5837 16.169C27.1648 16.0661 26.9543 15.7946 26.9543 15.3617V6.42191H24.4881V6.42425ZM32.4926 14.6338C33.1126 14.2524 33.4238 13.5878 33.4238 12.6446C33.4238 11.7764 33.1501 11.1469 32.6049 10.7584C32.0574 10.3699 31.2385 10.1733 30.1458 10.1733C29.638 10.1733 28.9946 10.2178 28.2154 10.3067V15.1136C28.8729 15.1768 29.4204 15.2049 29.8556 15.2049C30.9904 15.2049 31.8702 15.0153 32.4926 14.6338Z" fill="#351BA9"/>
<path d="M44.0208 14.6432C44.456 14.4326 44.7555 14.4724 44.9193 14.7556C45.0971 15.0691 45.0082 15.3547 44.6479 15.6098C43.7658 16.1948 42.6286 16.4873 41.2364 16.4873C39.5143 16.4873 38.2181 15.9912 37.3524 15.0013C36.4843 14.0137 36.0491 12.6236 36.0491 10.8239C36.0491 9.13428 36.5053 7.74652 37.4202 6.66065C38.3327 5.57243 39.5822 5.03183 41.1686 5.03183C42.5608 5.03183 43.6254 5.44372 44.3578 6.27684C45.0901 7.10763 45.4575 8.11394 45.4575 9.29577C45.4575 9.65851 45.4364 9.97678 45.3896 10.2646C45.2843 10.9971 44.8889 11.3622 44.1986 11.3622H37.329C37.4202 12.6376 37.7993 13.6135 38.4731 14.2945C39.1493 14.9755 40.0689 15.3149 41.2364 15.3149C42.1653 15.3149 43.0943 15.0926 44.0208 14.6432ZM38.4521 7.25506C37.7922 7.95948 37.4179 8.95643 37.329 10.2436H44.222C44.2525 10.047 44.2665 9.76381 44.2665 9.38937C44.2361 8.41583 43.9553 7.64121 43.4242 7.06551C42.893 6.4898 42.1092 6.19961 41.0773 6.19961C39.987 6.19961 39.1119 6.55065 38.4521 7.25506Z" fill="#351BA9"/>
<path d="M46.1314 15.6331C46.1314 15.467 46.1782 15.3359 46.2765 15.2376C46.3748 15.1393 46.4894 15.0925 46.6251 15.0925H47.3879C48.4806 13.4918 49.0281 10.4191 49.0281 5.88365C49.0281 5.7058 49.0819 5.55369 49.1966 5.43667C49.3089 5.31732 49.4539 5.25647 49.6341 5.25647H55.0695C55.3222 5.25647 55.5141 5.32667 55.6427 5.46943C55.7691 5.61218 55.8346 5.78068 55.8346 5.97259V15.0925H56.7542C57.1449 15.0925 57.3391 15.2844 57.3391 15.6776V18.2355C57.3391 18.7152 57.1449 18.9563 56.7542 18.9563C56.3658 18.9563 56.1715 18.7152 56.1715 18.2355V16.2603H47.3013V18.2355C47.3013 18.7152 47.1071 18.9563 46.7164 18.9563C46.328 18.9563 46.1338 18.7152 46.1338 18.2355V15.6331H46.1314ZM48.8035 15.0925H54.5735V6.42425H50.2635C50.1582 10.288 49.6715 13.1782 48.8035 15.0925Z" fill="#351BA9"/>
<path d="M67.5267 7.3674L60.7904 15.9444C60.6102 16.155 60.3926 16.258 60.1399 16.258C59.7211 16.258 59.5105 16.0216 59.5105 15.5395V5.97495C59.5105 5.4952 59.7211 5.25415 60.1399 5.25415C60.5587 5.25415 60.7693 5.4952 60.7693 5.97495V14.2149L67.5267 5.57008C67.7069 5.35946 67.9151 5.25649 68.1561 5.25649C68.5749 5.25649 68.7855 5.49754 68.7855 5.97729V15.5419C68.7855 16.0216 68.5749 16.2603 68.1561 16.2603C67.7373 16.2603 67.5267 16.024 67.5267 15.5419V7.3674Z" fill="#351BA9"/>
<path d="M79.607 5.97727C79.607 5.49752 79.8153 5.25647 80.2364 5.25647C80.6553 5.25647 80.8659 5.49752 80.8659 5.97727V15.5419C80.8659 16.0216 80.6529 16.2626 80.2364 16.2626C79.8176 16.2626 79.607 16.0216 79.607 15.5419V11.1633H73.0064V15.5419C73.0064 16.0216 72.7959 16.2626 72.377 16.2626C71.9582 16.2626 71.7476 16.0216 71.7476 15.5419V5.97727C71.7476 5.49752 71.9582 5.25647 72.377 5.25647C72.7959 5.25647 73.0064 5.49752 73.0064 5.97727V9.99547H79.607V5.97727Z" fill="#351BA9"/>
<path d="M91.2359 14.6432C91.6688 14.4326 91.9682 14.4724 92.1344 14.7556C92.3145 15.0691 92.2233 15.3547 91.8653 15.6098C90.9832 16.1948 89.846 16.4873 88.4538 16.4873C86.7294 16.4873 85.4355 15.9912 84.5674 15.0013C83.6993 14.0137 83.2665 12.6236 83.2665 10.8239C83.2665 9.13428 83.7227 7.74652 84.6353 6.66065C85.5501 5.57243 86.7996 5.03183 88.386 5.03183C89.7782 5.03183 90.8428 5.44372 91.5752 6.27684C92.3099 7.10763 92.6749 8.11394 92.6749 9.29577C92.6749 9.65851 92.6515 9.97678 92.607 10.2646C92.5041 10.9971 92.1063 11.3622 91.4161 11.3622H84.5464C84.6353 12.6376 85.0167 13.6135 85.6929 14.2945C86.3667 14.9755 87.2863 15.3149 88.4562 15.3149C89.3781 15.3149 90.307 15.0926 91.2359 14.6432ZM85.6671 7.25506C85.0073 7.95948 84.6329 8.95643 84.544 10.2436H91.4371C91.4675 10.047 91.4816 9.76381 91.4816 9.38937C91.4511 8.41583 91.1727 7.64121 90.6392 7.06551C90.1081 6.4898 89.3243 6.19961 88.2924 6.19961C87.202 6.19961 86.327 6.55065 85.6671 7.25506Z" fill="#351BA9"/>
<path d="M102.933 5.97727C102.933 5.49752 103.141 5.25647 103.562 5.25647C103.981 5.25647 104.191 5.49752 104.191 5.97727V15.5419C104.191 16.0216 103.981 16.2626 103.562 16.2626C103.143 16.2626 102.933 16.0216 102.933 15.5419V11.1633H96.332V15.5419C96.332 16.0216 96.1215 16.2626 95.7026 16.2626C95.2838 16.2626 95.0732 16.0216 95.0732 15.5419V5.97727C95.0732 5.49752 95.2838 5.25647 95.7026 5.25647C96.1215 5.25647 96.332 5.49752 96.332 5.97727V9.99547H102.933V5.97727Z" fill="#351BA9"/>
<path d="M115.17 7.3674L108.433 15.9444C108.253 16.155 108.036 16.258 107.783 16.258C107.364 16.258 107.154 16.0216 107.154 15.5395V5.97495C107.154 5.4952 107.364 5.25415 107.783 5.25415C108.202 5.25415 108.412 5.4952 108.412 5.97495V14.2149L115.17 5.57008C115.348 5.35946 115.558 5.25649 115.799 5.25649C116.218 5.25649 116.429 5.49754 116.429 5.97729V15.5419C116.429 16.0216 116.218 16.2603 115.799 16.2603C115.38 16.2603 115.17 16.024 115.17 15.5419V7.3674Z" fill="#351BA9"/>
<path d="M126.799 14.6432C127.232 14.4326 127.531 14.4724 127.697 14.7556C127.877 15.0691 127.786 15.3547 127.426 15.6098C126.544 16.1948 125.406 16.4873 124.014 16.4873C122.29 16.4873 120.996 15.9912 120.128 15.0013C119.26 14.0137 118.827 12.6236 118.827 10.8239C118.827 9.13428 119.283 7.74652 120.196 6.66065C121.111 5.57243 122.36 5.03183 123.946 5.03183C125.339 5.03183 126.403 5.44372 127.136 6.27684C127.868 7.10763 128.235 8.11394 128.235 9.29577C128.235 9.65851 128.212 9.97678 128.167 10.2646C128.064 10.9971 127.667 11.3622 126.976 11.3622H120.107C120.196 12.6376 120.577 13.6135 121.253 14.2945C121.927 14.9755 122.847 15.3149 124.017 15.3149C124.941 15.3149 125.87 15.0926 126.799 14.6432ZM121.23 7.25506C120.57 7.95948 120.196 8.95643 120.107 10.2436H127C127.03 10.047 127.044 9.76381 127.044 9.38937C127.014 8.41583 126.735 7.64121 126.202 7.06551C125.671 6.4898 124.887 6.19961 123.855 6.19961C122.765 6.19961 121.887 6.55065 121.23 7.25506Z" fill="#351BA9"/>
</svg>
