<svg width="129" height="28" viewBox="0 0 129 28" fill="none" xmlns="http://www.w3.org/2000/svg">
<path d="M3.27067 4.07039C5.41627 1.5593 8.46037 0.304932 12.4006 0.304932C16.3409 0.304932 19.3896 1.5593 21.5469 4.07039C23.7066 6.57914 24.7852 9.7806 24.7852 13.6701C24.7852 17.5877 23.7066 20.7938 21.5469 23.2909C19.3896 25.7879 16.3385 27.0376 12.4006 27.0376C8.46037 27.0376 5.41627 25.7856 3.27067 23.2909C1.12506 20.7938 0.0510864 17.5877 0.0510864 13.6701C0.0534262 9.7806 1.12506 6.57914 3.27067 4.07039ZM6.77103 20.3913C8.08834 22.1371 9.96253 23.01 12.4006 23.01C14.8598 23.01 16.748 22.1394 18.0676 20.3913C19.385 18.6478 20.0424 16.4058 20.0424 13.6701C20.0424 10.9343 19.385 8.69473 18.0676 6.9489C16.7503 5.20542 14.8598 4.33016 12.4006 4.33016C9.96487 4.33016 8.08834 5.20542 6.77103 6.9489C5.45605 8.69473 4.79622 10.9343 4.79622 13.6701C4.79622 16.4058 5.45605 18.6478 6.77103 20.3913Z" fill="#351BA9"/>
<path d="M44.931 0.681732C45.6563 0.681732 46.2155 0.90171 46.6063 1.34168C46.9947 1.78164 47.1889 2.33862 47.1889 3.0173V24.3674C47.1889 25.046 46.9947 25.5984 46.6063 26.0243C46.2155 26.4502 45.6586 26.6655 44.931 26.6655C44.2009 26.6655 43.6441 26.4525 43.2556 26.0243C42.8672 25.5984 42.673 25.046 42.673 24.3674V4.71163H35.7097C35.5834 11.943 35.0055 17.4028 33.9783 21.091C33.501 22.776 32.7756 24.1544 31.7952 25.2333C30.8149 26.3121 29.6239 26.8527 28.22 26.8527C27.1648 26.8527 26.3879 26.5719 25.8849 26.0079C25.3842 25.4416 25.2321 24.7442 25.4333 23.9181C25.6603 23.0147 26.3903 22.5631 27.6163 22.5631C28.6973 22.5631 29.4858 21.7206 29.9912 20.0403C30.9202 17.0518 31.4466 11.3813 31.5706 3.01964C31.594 2.28948 31.7976 1.7208 32.1743 1.30657C32.5487 0.892351 33.0658 0.68641 33.7162 0.68641H44.931V0.681732Z" fill="#351BA9"/>
<path d="M57.0535 18.7929L69.2135 1.96183C69.8429 1.1053 70.5683 0.679375 71.3989 0.679375C72.8285 0.679375 73.5445 1.45634 73.5445 3.0126V24.3627C73.5445 25.0414 73.3573 25.5936 72.9806 26.0196C72.6039 26.4455 72.0517 26.6608 71.3217 26.6608C70.5683 26.6608 69.9974 26.4408 69.6089 26.0032C69.2182 25.5632 69.024 25.0156 69.024 24.3627V8.62218L56.7891 25.3409C56.1129 26.2208 55.4086 26.6608 54.6809 26.6608C54.0047 26.6608 53.4759 26.4595 53.0992 26.0594C52.7225 25.6568 52.5353 25.0928 52.5353 24.3627V3.0126C52.5353 2.33627 52.7225 1.77695 53.0992 1.33698C53.4759 0.899358 54.0398 0.677032 54.7956 0.677032C55.5233 0.677032 56.0802 0.897017 56.4686 1.33698C56.8593 1.77695 57.0535 2.33627 57.0535 3.0126V18.7929Z" fill="#351BA9"/>
<path d="M91.3131 14.2738L98.8426 2.10924C99.4439 1.15442 100.186 0.679352 101.065 0.679352C101.742 0.679352 102.263 0.894652 102.628 1.32058C102.991 1.74416 103.174 2.3105 103.174 3.01258V24.3627C103.174 25.0413 102.979 25.5936 102.589 26.0195C102.2 26.4455 101.641 26.6608 100.913 26.6608C100.211 26.6608 99.6615 26.4478 99.2567 26.0195C98.8543 25.5936 98.6554 25.0413 98.6554 24.3627V9.03872L93.1592 17.9246C92.607 18.828 91.9167 19.282 91.0861 19.282C90.2344 19.282 89.5325 18.8444 88.9779 17.9621L83.4068 9.22828V24.3627C83.4068 25.8955 82.7049 26.6608 81.2986 26.6608C79.8924 26.6608 79.1905 25.8955 79.1905 24.3627V3.05236C79.1905 2.24965 79.3847 1.65289 79.7731 1.26207C80.1615 0.87359 80.6692 0.679352 81.2986 0.679352C82.251 0.679352 83.0301 1.16612 83.6338 2.14668L91.3131 14.2738Z" fill="#351BA9"/>
<path d="M108.82 3.01491C108.82 2.33624 109.014 1.77927 109.405 1.3393C109.795 0.901677 110.338 0.679352 111.042 0.679352H126.743C127.468 0.679352 128.027 0.899337 128.416 1.3393C128.806 1.77927 129 2.33624 129 3.01491V24.365C129 25.0437 128.806 25.596 128.416 26.0219C128.027 26.4478 127.468 26.6631 126.743 26.6631C126.013 26.6631 125.456 26.4502 125.067 26.0219C124.676 25.596 124.482 25.0437 124.482 24.365V4.70926H113.34V24.365C113.34 25.0437 113.137 25.596 112.736 26.0219C112.334 26.4478 111.782 26.6631 111.08 26.6631C110.352 26.6631 109.795 26.4502 109.405 26.0219C109.014 25.596 108.82 25.0437 108.82 24.365V3.01491Z" fill="#351BA9"/>
</svg>
