<svg width="23" height="22" viewBox="0 0 23 22" xmlns="http://www.w3.org/2000/svg">
<path  fill-rule="evenodd" clip-rule="evenodd" d="M11.5 0.833313C11.9245 0.833313 12.3178 1.05601 12.5362 1.41996L15.8862 7.00327L21.4037 8.10678C21.8406 8.19417 22.194 8.51498 22.3232 8.94149C22.4523 9.368 22.3362 9.83096 22.0211 10.1461L17.6451 14.5221L18.7266 19.9297C18.8171 20.3822 18.6419 20.8468 18.2751 21.1269C17.9084 21.407 17.4141 21.4538 17.0013 21.2474L11.5 18.4968L5.99875 21.2474C5.58597 21.4538 5.09167 21.407 4.72491 21.1269C4.35815 20.8468 4.18299 20.3822 4.2735 19.9297L5.355 14.5221L0.978943 10.1461C0.663837 9.83096 0.547742 9.368 0.676878 8.94149C0.806014 8.51498 1.15942 8.19417 1.59639 8.10678L7.11391 7.00327L10.4639 1.41996C10.6823 1.05601 11.0756 0.833313 11.5 0.833313ZM11.5 4.39022L8.91117 8.705C8.73601 8.99692 8.44584 9.20142 8.112 9.26818L4.28428 10.0337L7.52112 13.2706C7.8068 13.5562 7.9308 13.9658 7.85157 14.362L7.12776 17.981L10.9596 16.065C11.2998 15.895 11.7002 15.895 12.0404 16.065L15.8723 17.981L15.1485 14.362C15.0693 13.9658 15.1933 13.5562 15.4789 13.2706L18.7158 10.0337L14.8881 9.26818C14.5542 9.20142 14.2641 8.99692 14.0889 8.705L11.5 4.39022Z" 
   fill="#351BA9"  stroke="#351BA9" />
</svg>
