<svg width="5" height="21" viewBox="0 0 5 21" fill="none" xmlns="http://www.w3.org/2000/svg">
<path d="M2.49998 5.66666C1.16529 5.66666 0.0833129 4.58468 0.083313 3.24999C0.083313 1.91531 1.16529 0.833328 2.49998 0.833328C3.83467 0.833328 4.91665 1.91531 4.91665 3.24999C4.91665 4.58468 3.83467 5.66666 2.49998 5.66666Z" fill="#3914AF"/>
<path d="M2.49998 12.9167C1.16529 12.9167 0.0833129 11.8347 0.083313 10.5C0.083313 9.16531 1.16529 8.08333 2.49998 8.08333C3.83467 8.08333 4.91665 9.16531 4.91665 10.5C4.91665 11.8347 3.83467 12.9167 2.49998 12.9167Z" fill="#3914AF"/>
<path d="M2.49998 20.1667C1.16529 20.1667 0.0833129 19.0847 0.083313 17.75C0.083313 16.4153 1.16529 15.3333 2.49998 15.3333C3.83467 15.3333 4.91665 16.4153 4.91665 17.75C4.91665 19.0847 3.83467 20.1667 2.49998 20.1667Z" fill="#3914AF"/>
</svg>
